<?xml version="1.0" encoding="UTF-8"?>
<svg width="50px" height="50px" viewBox="0 0 50 50" version="1.1" xmlns="http://www.w3.org/2000/svg" xmlns:xlink="http://www.w3.org/1999/xlink">
    <!-- Generator: Sketch 52.6 (67491) - http://www.bohemiancoding.com/sketch -->
    <title>hackernew 2</title>
    <desc>Created with Sketch.</desc>
    <g id="Page-1" stroke="none" stroke-width="1" fill="none" fill-rule="evenodd">
        <g id="hackernew-2">
            <rect id="rect2984" fill="#4D4F53" x="0" y="0" width="50" height="50" rx="6"></rect>
            <path d="M42.7927928,41 L35.3333333,41 L35.3333333,29.6101695 C35.3333333,26.9661017 35.3333333,23.5084746 31.3963964,23.5084746 C27.4594595,23.5084746 27.045045,26.3559322 27.045045,29.4067797 L27.045045,41 L20,41 L20,17.6101695 L27.045045,17.6101695 L27.045045,20.8644068 C28.0810811,19.0338983 30.3603604,17 34.0900901,17 C41.5495495,17 43,21.8813559 43,28.1864407 L42.7927928,41 Z M11.5,15 C9.14285714,15 7,13.0714286 7,10.5 C7,8.14285714 8.92857143,6 11.5,6 C13.8571429,6 16,7.92857143 16,10.5 C16,13.0714286 14.0714286,15 11.5,15 Z M14.8055556,41 L8,41 L8,18 L15,18 L15,41 L14.8055556,41 Z" id="Shape" fill="#FFFFFF" fill-rule="nonzero"></path>
        </g>
    </g>
</svg>