<?xml version="1.0" encoding="UTF-8"?>
<svg width="50px" height="50px" viewBox="0 0 50 50" version="1.1" xmlns="http://www.w3.org/2000/svg" xmlns:xlink="http://www.w3.org/1999/xlink">
    <!-- Generator: Sketch 52.6 (67491) - http://www.bohemiancoding.com/sketch -->
    <title>hackernew 2</title>
    <desc>Created with Sketch.</desc>
    <g id="Page-1" stroke="none" stroke-width="1" fill="none" fill-rule="evenodd">
        <g id="hackernew-2">
            <rect id="rect2984" fill="#4D4F53" x="0" y="0" width="50" height="50" rx="6"></rect>
            <g id="Group" transform="translate(6.000000, 10.000000)"></g>
            <path d="M20.0121212,29 C18.8969697,29 18,28.1030303 18,27.0121212 C18,25.8969697 18.8969697,25 20.0121212,25 C21.1111111,25 22,25.8969697 22,27.0121212 C22,28.1111111 21.1030303,29 20.0121212,29 Z M46,25 C46,36.6008065 36.6008065,46 25,46 C13.3991935,46 4,36.6008065 4,25 C4,13.3991935 13.3991935,4 25,4 C36.6008065,4 46,13.3991935 46,25 Z M35.2147333,21.1867663 C34.4254496,21.1867663 33.7285288,21.5197439 33.2163341,22.040555 C31.3354878,20.7171825 28.799704,19.8633938 25.9868312,19.7694771 L27.4478457,13.0843116 L32.0995816,14.1515475 C32.0995816,15.3127001 33.0316081,16.2518677 34.1651539,16.2518677 C35.3238895,16.2518677 36.255916,15.2870864 36.255916,14.1259338 C36.255916,12.9647812 35.3238895,12 34.1651539,12 C33.3506803,12 32.6537595,12.4951974 32.3094975,13.1782284 L27.1707567,12.0170758 C26.9188577,11.9487727 26.658562,12.1366062 26.5913889,12.3927428 L24.9876316,19.7694771 C22.1999487,19.8890075 19.6893547,20.7342583 17.8085085,22.0576307 C17.2963137,21.511206 16.5742031,21.1867663 15.7849194,21.1867663 C12.8544937,21.1867663 11.8972773,25.1910352 14.5758039,26.5485592 C14.4834409,26.9754536 14.4330611,27.4194237 14.4330611,27.8719317 C14.4330611,32.3628602 19.4038691,36 25.5166196,36 C31.6545599,36 36.625368,32.3628602 36.625368,27.8719317 C36.625368,27.4194237 36.5749882,26.9498399 36.4658319,26.5229456 C39.0939787,25.1568837 38.1283657,21.1867663 35.2147333,21.1867663 Z M29.1070645,31.1206581 C27.5098728,32.4515539 22.4286968,32.4296161 20.8929355,31.1206581 C20.6998684,30.9597806 20.357613,30.9597806 20.1645459,31.1206581 C19.9451514,31.3034735 19.9451514,31.5886654 20.1645459,31.749543 C22.1654234,33.416819 27.8258008,33.416819 29.8354541,31.749543 C30.0548486,31.5886654 30.0548486,31.3034735 29.8354541,31.1206581 C29.642387,30.9597806 29.3001316,30.9597806 29.1070645,31.1206581 Z M29.9878788,25 C28.8888889,25 28,25.8969697 28,27.0121212 C28,28.1111111 28.8969697,29 29.9878788,29 C31.1030303,29 32,28.1030303 32,27.0121212 C32,25.8969697 31.1111111,25 29.9878788,25 Z" id="Shape" fill="#FFFFFF" fill-rule="nonzero"></path>
        </g>
    </g>
</svg>