<?xml version="1.0" encoding="UTF-8"?>
<svg width="50px" height="50px" viewBox="0 0 50 50" version="1.1" xmlns="http://www.w3.org/2000/svg" xmlns:xlink="http://www.w3.org/1999/xlink">
    <!-- Generator: Sketch 52.6 (67491) - http://www.bohemiancoding.com/sketch -->
    <title>hackernew 2</title>
    <desc>Created with Sketch.</desc>
    <g id="Page-1" stroke="none" stroke-width="1" fill="none" fill-rule="evenodd">
        <g id="hackernew-2">
            <rect id="rect2984" fill="#4D4F53" x="0" y="0" width="50" height="50" rx="6"></rect>
            <path d="M35.8274107,41.6472656 C34.7990808,42.7234375 32.0467862,44 28.4627542,44 C19.3287654,44 17.3477182,37.409375 17.3477182,33.5648437 L17.3477182,22.8773438 L13.7561249,22.8773438 C13.3402562,22.8773438 13,22.5433594 13,22.1351563 L13,17.0882813 C13,16.5539063 13.3402562,16.0789063 13.8544211,15.9007812 C18.5423955,14.2828125 20.0168391,10.2601562 20.228554,7.20976563 C20.289044,6.39335938 20.7200352,6 21.4459151,6 L26.8068407,6 C27.2227094,6 27.5629656,6.33398438 27.5629656,6.7421875 L27.5629656,15.2921875 L33.8388022,15.2921875 C34.2546709,15.2921875 34.5949271,15.61875 34.5949271,16.0269531 L34.5949271,22.090625 C34.5949271,22.4988281 34.2546709,22.8328125 33.8388022,22.8328125 L27.5327206,22.8328125 L27.5327206,32.71875 C27.5327206,35.2570312 29.3247366,36.696875 32.6743699,35.3757813 C33.0373098,35.2347656 33.3548823,35.1382813 33.6346485,35.2125 C33.8992922,35.2792969 34.0732009,35.4648438 34.1941809,35.7988281 L35.8576557,40.5710938 C35.9937582,40.9421875 36.1071769,41.3578125 35.8274107,41.6472656 Z" id="Path" fill="#FFFFFF"></path>
        </g>
    </g>
</svg>