<?xml version="1.0" encoding="UTF-8"?>
<svg width="38px" height="29px" viewBox="0 0 38 29" version="1.1" xmlns="http://www.w3.org/2000/svg" xmlns:xlink="http://www.w3.org/1999/xlink">
    <!-- Generator: Sketch 52.6 (67491) - http://www.bohemiancoding.com/sketch -->
    <title>email</title>
    <desc>Created with Sketch.</desc>
    <g id="Page-1" stroke="none" stroke-width="1" fill="none" fill-rule="evenodd">
        <g id="email" transform="translate(-6.000000, -10.000000)" fill="#FFFFFF">
            <g id="Group" transform="translate(6.000000, 10.000000)">
                <path d="M38,3.51537702 L36.5078618,2 L22.6817917,16.0329562 C20.953533,17.7870757 18.046467,17.7870757 16.3191061,16.0329562 L2.49303601,2.07927709 L1,3.59465411 L11.2905464,14.0400942 L1,24.484623 L2.49303601,26 L12.7835825,15.55456 L14.8260701,17.6276103 C16.0829855,18.9024224 17.733136,19.6213836 19.4613947,19.6213836 C21.1896535,19.6213836 22.8389061,18.9033336 24.0967194,17.6276103 L26.139207,15.55456 L36.4297535,26 L37.9227895,24.484623 L27.6313452,14.0400942 L38,3.51537702" id="Fill-3"></path>
                <path d="M34.6680187,29 L3.33198129,29 C1.50687154,29 0,27.4949883 0,25.6721311 L0,3.32786885 C0,1.50591725 1.5077782,0 3.33198129,0 L34.6680187,0 C36.4931285,0 38,1.50591725 38,3.32786885 L38,25.6721311 C38,27.4949883 36.4922218,29 34.6680187,29 Z M3.25219508,2.13889149 C2.61753197,2.13889149 2.14153464,2.61430133 2.14153464,3.24818111 L2.14153464,25.5924434 C2.14153464,26.2263232 2.61753197,26.7026386 3.25219508,26.7026386 L34.5882325,26.7026386 C35.2228956,26.7026386 35.6997996,26.2272287 35.6997996,25.5924434 L35.6997996,3.24818111 C35.6997996,2.61430133 35.2238023,2.13889149 34.5882325,2.13889149 L3.25219508,2.13889149 Z" id="Fill-4" fill-rule="nonzero"></path>
            </g>
        </g>
    </g>
</svg>