<?xml version="1.0" encoding="UTF-8"?>
<svg width="20px" height="20px" viewBox="0 0 20 20" version="1.1" xmlns="http://www.w3.org/2000/svg" xmlns:xlink="http://www.w3.org/1999/xlink">
    <title>instagram</title>
    <g id="Page-1" stroke="none" stroke-width="1" fill="none" fill-rule="evenodd">
        <g id="instagram" fill="#FFFFFF" fill-rule="nonzero">
            <path d="M15.3571429,5.42857143 C14.9242143,5.42857143 14.5714286,5.07578572 14.5714286,4.64285713 L14.5714286,3.07142857 C14.5714286,2.6385 14.9242143,2.28571429 15.3571429,2.28571429 L16.9285714,2.28571429 C17.3615,2.28571429 17.7142857,2.6385 17.7142857,3.07142857 L17.7142857,4.64285713 C17.7142857,5.07578572 17.3615,5.42857143 16.9285714,5.42857143 L15.3571429,5.42857143 Z" id="Path"></path>
            <path d="M10.1420703,7.14285714 C9.57086657,7.14285714 9.04372257,7.31046371 8.58974937,7.58587354 C8.73137011,7.54180794 8.8784984,7.5126932 9.0334944,7.5126932 C9.87377766,7.5126932 10.5543441,8.19334897 10.5543441,9.03452931 C10.5543441,9.87334897 9.87377766,10.5555785 9.0334944,10.5555785 C8.1932112,10.5555785 7.51264474,9.87413583 7.51264474,9.03452931 C7.51264474,8.87793914 7.5433292,8.7307916 7.58660223,8.58993914 C7.30965491,9.04397189 7.14285714,9.57118503 7.14285714,10.1424637 C7.14285714,11.8004309 8.48432057,13.1428571 10.1428571,13.1428571 C11.7990334,13.1428571 13.1428571,11.8012178 13.1428571,10.1424637 C13.1428571,8.4837096 11.7982466,7.14285714 10.1420703,7.14285714 Z" id="Path"></path>
            <path d="M10.1428571,5.53571429 C12.6867678,5.53571429 14.75,7.59817857 14.75,10.1428571 C14.75,12.6875357 12.686,14.75 10.1428571,14.75 C7.59894646,14.75 5.53571429,12.6875357 5.53571429,10.1428571 C5.53571429,7.59817857 7.59894646,5.53571429 10.1428571,5.53571429 Z M10.1428571,4 C6.75583931,4 4,6.75583931 4,10.1428571 C4,13.529875 6.75583931,16.2857143 10.1428571,16.2857143 C13.529875,16.2857143 16.2857143,13.529875 16.2857143,10.1428571 C16.2857143,6.75583931 13.529875,4 10.1428571,4 Z" id="Shape"></path>
            <path d="M16.25,0 L3.75,0 C1.67846154,0 0,1.67846154 0,3.75 L0,16.25 C0,18.3215385 1.67846154,20 3.75,20 L16.25,20 C18.3215385,20 20,18.3215385 20,16.25 L20,3.75 C20,1.67846154 18.3215385,0 16.25,0 Z M18.4615385,6.92307691 L13.4330769,6.92307691 C14.1661538,7.7407692 14.6153846,8.81615383 14.6153846,10 C14.6153846,12.5492308 12.5476923,14.6153846 10,14.6153846 C7.45153846,14.6153846 5.38461539,12.5492308 5.38461539,10 C5.38461539,8.81615383 5.83384617,7.74 6.56692309,6.92307691 L1.53846154,6.92307691 L1.53846154,3.75 C1.53846154,2.53076923 2.53076923,1.53846154 3.75,1.53846154 L16.25,1.53846154 C17.47,1.53846154 18.4615385,2.53076923 18.4615385,3.75 L18.4615385,6.92307691 Z" id="Shape"></path>
        </g>
    </g>
</svg>