<?xml version="1.0" encoding="UTF-8"?>
<svg width="20px" height="20px" viewBox="0 0 20 20" version="1.1" xmlns="http://www.w3.org/2000/svg" xmlns:xlink="http://www.w3.org/1999/xlink">
    <title>linkedin</title>
    <g id="Page-1" stroke="none" stroke-width="1" fill="none" fill-rule="evenodd">
        <g id="linkedin" fill="#FFFFFF" fill-rule="nonzero">
            <path d="M5.104167,19.2895833 L1.054167,19.2895833 L1.054167,6.25625 L5.104167,6.25625 L5.104167,19.2895833 Z M3.054167,4.65625 C1.775,4.65625 0.947917,3.75 0.947917,2.6291667 C0.947917,1.4854167 1.8,0.60625 3.10625,0.60625 C4.4125,0.60625 5.2125,1.4854167 5.2375,2.6291667 C5.2375,3.75 4.4125,4.65625 3.054167,4.65625 Z M19.895833,19.2895833 L15.845833,19.2895833 L15.845833,12.0666667 C15.845833,10.3854167 15.258333,9.24375 13.79375,9.24375 C12.675,9.24375 12.010417,10.0166667 11.716667,10.7604167 C11.608333,11.025 11.58125,11.4 11.58125,11.7729167 L11.58125,19.2875 L7.529167,19.2875 L7.529167,10.4125 C7.529167,8.7854167 7.477083,7.425 7.422917,6.2541667 L10.941667,6.2541667 L11.127083,8.0645833 L11.208333,8.0645833 C11.741667,7.2145833 13.047917,5.9604167 15.233333,5.9604167 C17.897917,5.9604167 19.895833,7.7458333 19.895833,11.5833333 L19.895833,19.2895833 Z" id="Shape"></path>
        </g>
    </g>
</svg>