<?xml version="1.0" encoding="UTF-8"?>
<svg width="10px" height="13px" viewBox="0 0 10 13" version="1.1" xmlns="http://www.w3.org/2000/svg" xmlns:xlink="http://www.w3.org/1999/xlink">
    <title>lock</title>
    <g id="Page-1" stroke="none" stroke-width="1" fill="none" fill-rule="evenodd">
        <g id="lock" fill="#FFFFFF" fill-rule="nonzero">
            <path d="M9.35714285,5.48214285 L8.6607143,5.48214285 C8.57142855,5.48214285 8.48214285,5.4107143 8.48214285,5.30357145 L8.48214285,3.66071429 C8.48214285,1.76785714 7.01785715,0.160714285 5.125,0.0892857145 C3.14285714,0.0178571428 1.5,1.60714285 1.5,3.58928571 L1.5,5.32142855 C1.5,5.4107143 1.42857143,5.5 1.32142857,5.5 L0.625,5.5 C0.357142857,5.5 0.142857143,5.7142857 0.142857143,5.98214285 L0.142857143,12.3035714 C0.142857143,12.5714286 0.357142857,12.7857143 0.625,12.7857143 L9.3392857,12.7857143 C9.60714285,12.7857143 9.82142855,12.5714286 9.82142855,12.3035714 L9.82142855,5.9642857 C9.8392857,5.69642855 9.625,5.48214285 9.35714285,5.48214285 Z M2.58928571,3.58928571 C2.58928571,2.21428571 3.73214285,1.10714285 5.125,1.17857143 C6.42857145,1.25 7.42857145,2.35714286 7.42857145,3.66071429 L7.42857145,5.32142855 C7.42857145,5.4107143 7.35714285,5.5 7.25,5.5 L2.75,5.5 C2.66071428,5.5 2.57142857,5.42857145 2.57142857,5.32142855 L2.57142857,3.58928571 L2.58928571,3.58928571 Z" id="Shape"></path>
        </g>
    </g>
</svg>