<?xml version="1.0" encoding="UTF-8"?>
<svg width="16px" height="20px" viewBox="0 0 16 20" version="1.1" xmlns="http://www.w3.org/2000/svg" xmlns:xlink="http://www.w3.org/1999/xlink">
    <title>pinterest</title>
    <g id="Page-1" stroke="none" stroke-width="1" fill="none" fill-rule="evenodd">
        <g id="pinterest" fill="#FFFFFF" fill-rule="nonzero">
            <path d="M8.18189097,0 C2.74277707,0 0,3.91297556 0,7.17673463 C0,9.15250606 0.745446051,10.9101311 2.34403149,11.5645703 C2.60625876,11.6730409 2.84126243,11.5685877 2.91732835,11.2773241 C2.97017415,11.0764527 3.09548275,10.5678462 3.15113098,10.3553242 C3.22759725,10.0672746 3.19797158,9.96683886 2.98618803,9.71494611 C2.52538867,9.16978103 2.23033295,8.46351709 2.23033295,7.46237383 C2.23033295,4.55937984 4.39500901,1.96050521 7.86681789,1.96050521 C10.9410823,1.96050521 12.6301461,3.84548276 12.6301461,6.36240183 C12.6301461,9.67517354 11.1692801,12.4709022 9.00100086,12.4709022 C7.80316274,12.4709022 6.90718623,11.4773921 7.19383463,10.2581025 C7.53773269,8.80258806 8.2043104,7.23257691 8.2043104,6.18121583 C8.2043104,5.24113749 7.70107429,4.45693541 6.66057251,4.45693541 C5.43631147,4.45693541 4.45265897,5.72804983 4.45265897,7.4302344 C4.45265897,8.5145384 4.81777541,9.24812091 4.81777541,9.24812091 C4.81777541,9.24812091 3.56508974,14.5752314 3.34529926,15.5080783 C2.90812037,17.3661391 3.27964235,19.6432177 3.31126977,19.8730146 C3.32968573,20.0096071 3.50423701,20.0425501 3.5835057,19.9397039 C3.6960032,19.7914608 5.15486755,17.9852249 5.65009675,16.1797924 C5.79061851,15.6691772 6.45519451,13.0224951 6.45519451,13.0224951 C6.85313937,13.7841997 8.01574697,14.4535033 9.2520184,14.4535033 C12.9316074,14.4535033 15.4285714,11.0872998 15.4285714,6.58135171 C15.4289718,3.17336694 12.5528791,0 8.18189097,0 Z" id="Path"></path>
        </g>
    </g>
</svg>