<?xml version="1.0" encoding="UTF-8"?>
<svg width="25px" height="20px" viewBox="0 0 25 20" version="1.1" xmlns="http://www.w3.org/2000/svg" xmlns:xlink="http://www.w3.org/1999/xlink">
    <title>twitter</title>
    <g id="Page-1" stroke="none" stroke-width="1" fill="none" fill-rule="evenodd">
        <g id="twitter" fill="#FFFFFF" fill-rule="nonzero">
            <path d="M24.5714286,2.36751664 C23.6672785,2.76906438 22.6958451,3.04049605 21.6761329,3.16253695 C22.7168652,2.53767214 23.5162029,1.54822274 23.8926441,0.369150905 C22.9184753,0.947823783 21.8397341,1.36797327 20.6914061,1.5943666 C19.7718989,0.613088514 18.4616972,0 17.0117458,0 C14.2277411,0 11.9706775,2.26052056 11.9706775,5.04885962 C11.9706775,5.44459131 12.0152611,5.82994063 12.101213,6.19952411 C7.91160063,5.98889663 4.19705095,3.97885073 1.71073438,0.92407892 C1.27679996,1.66978298 1.02815871,2.53709534 1.02815871,3.46242399 C1.02815871,5.21416039 1.91810339,6.75959526 3.27077709,7.6650244 C2.44442045,7.63878006 1.66711058,7.41166571 0.987510349,7.03347834 C0.98703044,7.05453149 0.98703044,7.07568074 0.98703044,7.09697423 C0.98703044,9.54327189 2.72473575,11.5838881 5.03079821,12.0478262 C4.60785371,12.1631378 4.16244946,12.2250475 3.70269589,12.2250475 C3.37784497,12.2250475 3.06206433,12.1933235 2.75420221,12.1342978 C3.39574559,14.1401139 5.25741161,15.6000865 7.46336486,15.6407027 C5.73808926,16.9950251 3.56443388,17.8021101 1.20255792,17.8021101 C0.795642417,17.8021101 0.394389854,17.7782691 0,17.7314042 C2.23090859,19.1641231 4.88073042,20 7.7275552,20 C16.99994,20 22.0705227,12.306376 22.0705227,5.63426181 C22.0705227,5.41536686 22.0655317,5.19762551 22.0558855,4.98103775 C23.0409483,4.26922059 23.8956196,3.3799899 24.5714286,2.36751664 Z" id="Shape"></path>
        </g>
    </g>
</svg>