<?xml version="1.0" encoding="UTF-8"?>
<svg width="29px" height="20px" viewBox="0 0 29 20" version="1.1" xmlns="http://www.w3.org/2000/svg" xmlns:xlink="http://www.w3.org/1999/xlink">
    <title>youtube</title>
    <defs>
        <polygon id="path-1" points="0.00959928229 0.0064 28.1578947 0.0064 28.1578947 19.84 0.00959928229 19.84"></polygon>
    </defs>
    <g id="Page-1" stroke="none" stroke-width="1" fill="none" fill-rule="evenodd">
        <g id="youtube">
            <g id="Fill-1-Clipped">
                <mask id="mask-2" fill="white">
                    <use xlink:href="#path-1"></use>
                </mask>
                <g id="path-1"></g>
                <path d="M27.5694587,3.09808 C27.2456429,1.87856 26.2916343,0.91824 25.0800449,0.59232 C22.884209,0 14.0789474,0 14.0789474,0 C14.0789474,0 5.27368571,0 3.07784988,0.59232 C1.86642046,0.91824 0.912251794,1.87856 0.588436006,3.09808 C0,5.30832 0,9.92 0,9.92 C0,9.92 0,14.53152 0.588436006,16.74208 C0.912251794,17.96144 1.86642046,18.92176 3.07784988,19.24784 C5.27368571,19.84 14.0789474,19.84 14.0789474,19.84 C14.0789474,19.84 22.884209,19.84 25.0800449,19.24784 C26.2916343,18.92176 27.2456429,17.96144 27.5694587,16.74208 C28.1578947,14.53152 28.1578947,9.92 28.1578947,9.92 C28.1578947,9.92 28.1578947,5.30832 27.5694587,3.09808" id="Fill-1" fill="#FFFFFF" fill-rule="nonzero" mask="url(#mask-2)"></path>
            </g>
            <polygon id="Fill-4" fill="#000000" fill-rule="nonzero" points="18.6842105 10.0001609 15.2446681 8.03463297 11.3157895 5.78947366 11.3157895 14.2105263"></polygon>
        </g>
    </g>
</svg>